<?xml version="1.0" standalone="no"?>
<!DOCTYPE svg PUBLIC "-//W3C//DTD SVG 20010904//EN"
 "http://www.w3.org/TR/2001/REC-SVG-20010904/DTD/svg10.dtd">
<svg version="1.0" xmlns="http://www.w3.org/2000/svg"
 width="389.000000pt" height="78.000000pt" viewBox="0 0 389.000000 78.000000"
 preserveAspectRatio="xMidYMid meet">
<metadata>
Created by potrace 1.13, written by Peter Selinger 2001-2015
</metadata>
<g transform="translate(0.000000,78.000000) scale(0.100000,-0.100000)"
fill="#000000" stroke="none">
<path d="M283 714 c-42 -21 -172 -156 -155 -162 7 -2 42 24 78 58 36 34 67 60
70 57 3 -2 -24 -65 -59 -138 l-63 -134 37 3 c37 4 40 7 82 91 74 143 100 211
86 227 -15 18 -36 17 -76 -2z"/>
<path d="M573 718 c-5 -7 -22 -38 -38 -68 -41 -80 -74 -126 -151 -210 -37 -41
-62 -69 -54 -62 17 14 34 16 25 2 -17 -28 10 -3 64 61 60 69 75 76 46 19 -25
-49 -36 -82 -25 -75 6 3 10 -1 10 -10 0 -11 -5 -15 -16 -11 -8 3 -13 2 -9 -3
3 -5 2 -11 -3 -13 -10 -4 -48 -94 -57 -135 -5 -26 -3 -34 16 -43 18 -10 27 -8
62 17 46 32 134 139 123 150 -4 4 -31 -20 -60 -52 -30 -33 -57 -57 -61 -54 -3
4 5 33 19 65 20 48 22 60 10 62 -8 2 -14 10 -14 19 0 10 6 14 20 10 11 -3 18
-1 15 3 -3 5 -1 10 3 12 5 1 33 63 63 136 l54 134 3 -246 2 -246 89 0 c48 0
122 -3 164 -6 l77 -7 0 42 0 41 -125 0 -125 0 0 95 0 95 85 0 85 0 0 35 0 35
-85 0 -85 0 0 75 0 75 126 0 125 0 -3 33 -3 32 -181 3 c-138 2 -183 -1 -191
-10z"/>
<path d="M1680 581 c-10 -19 -12 -19 -47 -5 -77 33 -177 -13 -203 -92 -13 -37
-4 -126 10 -104 5 7 20 11 38 8 28 -4 29 -2 22 21 -8 31 4 84 23 100 8 6 28
14 45 17 26 5 36 1 63 -25 28 -28 31 -37 26 -71 -5 -40 -1 -45 32 -40 8 1 17
-4 22 -11 14 -24 23 63 10 109 -10 39 -9 46 6 57 17 13 17 14 -1 34 -24 26
-32 26 -46 2z"/>
<path d="M1160 579 c-14 -6 -35 -19 -46 -30 l-22 -20 -6 25 c-5 19 -13 26 -31
26 -13 0 -26 -4 -30 -9 -3 -6 -3 -46 1 -90 7 -81 7 -81 35 -81 19 0 29 -5 29
-15 0 -10 -10 -15 -30 -15 l-30 0 0 -95 0 -95 35 0 35 0 0 155 0 156 41 18
c31 14 49 17 72 10 44 -12 49 -21 57 -91 4 -35 8 -58 9 -51 0 6 15 15 32 18
l32 7 -6 55 c-7 66 -28 100 -72 119 -39 16 -69 17 -105 3z"/>
<path d="M2180 579 c-14 -6 -34 -19 -46 -30 -21 -19 -21 -19 -32 6 -8 17 -20
25 -37 25 l-25 0 1 -112 c1 -62 4 -103 6 -90 3 17 11 22 33 22 27 0 29 3 32
42 4 51 38 80 93 80 50 0 76 -27 82 -85 5 -45 6 -45 40 -44 l35 2 -5 50 c-9
92 -40 130 -114 140 -21 2 -49 0 -63 -6z"/>
<path d="M2565 577 c-74 -30 -107 -70 -125 -151 -33 -147 75 -273 214 -251 50
9 106 31 106 43 0 4 -6 16 -13 26 -11 16 -15 16 -49 1 -47 -19 -81 -19 -123 1
-34 16 -65 65 -65 103 0 20 6 21 143 23 l142 3 3 45 c3 57 -30 116 -78 142
-47 23 -117 31 -155 15z m143 -92 c12 -15 22 -35 22 -46 0 -18 -8 -19 -110
-19 -70 0 -110 4 -110 10 0 6 6 23 14 38 34 65 133 74 184 17z"/>
<path d="M2900 451 c0 -130 1 -139 18 -134 24 6 44 -19 40 -49 -2 -17 -11 -24
-30 -26 -24 -3 -28 -8 -28 -33 l0 -29 305 0 c244 0 305 3 305 13 0 27 21 36
48 21 55 -28 128 -9 120 32 -3 16 -13 19 -71 20 -37 1 -74 7 -82 14 -21 18
-18 47 5 60 21 11 21 11 -5 41 -37 44 -35 101 5 141 28 27 35 30 88 27 31 -2
63 0 70 5 7 4 19 2 28 -5 14 -12 14 -14 0 -24 -13 -10 -13 -17 -4 -42 24 -64
-32 -143 -103 -143 -33 0 -59 -9 -59 -21 0 -5 31 -8 69 -6 56 2 73 -2 90 -17
23 -21 28 -65 11 -97 -10 -18 -7 -19 60 -19 l70 0 0 205 0 205 -475 0 -475 0
0 -139z m291 83 c38 -19 59 -67 59 -132 0 -109 -99 -174 -190 -127 -40 21 -62
66 -62 129 -1 92 45 145 125 146 21 0 52 -7 68 -16z m169 -4 l0 -20 20 20 c13
13 33 20 60 20 38 0 39 -1 28 -24 -8 -20 -16 -24 -37 -20 -48 10 -65 -23 -71
-139 -5 -96 -6 -102 -27 -105 -23 -3 -23 -3 -23 142 l0 146 25 0 c18 0 25 -5
25 -20z"/>
<path d="M3079 491 c-21 -17 -24 -28 -24 -86 0 -58 3 -69 24 -86 32 -26 63
-24 92 7 20 21 24 36 24 86 0 51 -4 63 -24 79 -30 24 -62 24 -92 0z"/>
<path d="M1800 550 c0 -27 3 -30 30 -30 29 0 30 -1 31 -52 0 -29 4 -73 8 -98
7 -39 9 -41 10 -12 1 27 5 32 26 32 25 0 25 0 25 95 l0 95 -65 0 -65 0 0 -30z"/>
<path d="M1633 368 c-4 -7 -6 -21 -4 -32 2 -16 -2 -17 -36 -13 -21 3 -60 9
-88 12 l-50 6 23 -20 23 -20 -31 -16 c-26 -14 -31 -21 -28 -48 4 -46 36 -59
124 -51 83 7 114 -4 114 -41 0 -13 -10 -31 -22 -39 -29 -20 -108 -21 -154 -1
-39 16 -48 14 -64 -16 -26 -48 163 -84 237 -45 45 22 73 63 73 103 0 81 -47
108 -166 99 -126 -10 -126 23 0 43 65 10 114 31 72 31 -15 0 -17 6 -14 30 5
33 3 36 -9 18z"/>
</g>
</svg>
