<?xml version="1.0" encoding="utf-8"?>
<!-- Generator: Adobe Illustrator 14.0.0, SVG Export Plug-In . SVG Version: 6.00 Build 43363)  -->
<!DOCTYPE svg PUBLIC "-//W3C//DTD SVG 1.1//EN" "http://www.w3.org/Graphics/SVG/1.1/DTD/svg11.dtd">
<svg version="1.1" id="Layer_1" xmlns="http://www.w3.org/2000/svg" xmlns:xlink="http://www.w3.org/1999/xlink" x="0px" y="0px"
	 width="2834.65px" height="1133.86px" viewBox="0 0 2834.65 1133.86" enable-background="new 0 0 2834.65 1133.86"
	 xml:space="preserve">
<g>
	<rect x="966.483" y="339.115" fill="none" width="1989.49" height="393.304"/>
	<path fill="#4A4B4C" d="M1151.724,411.052c0-4.4,1.828-7.625,5.5-9.68c3.664-2.049,7.988-3.08,12.979-3.08
		c4.4,0,8.58,1.031,12.54,3.08c3.96,2.056,5.94,5.28,5.94,9.68v215.6c0,17.6-2.496,32.49-7.48,44.66
		c-4.991,12.176-11.811,22.076-20.46,29.699c-8.655,7.631-18.851,13.131-30.58,16.5c-11.735,3.369-24.351,5.061-37.84,5.061
		c-13.495,0-26.111-1.691-37.84-5.061c-11.735-3.369-21.855-8.869-30.36-16.5c-8.511-7.623-15.255-17.523-20.239-29.699
		c-4.991-12.17-7.48-27.061-7.48-44.66v-215.6c0-4.4,1.904-7.625,5.72-9.68c3.81-2.049,8.064-3.08,12.761-3.08
		c4.688,0,8.944,1.031,12.76,3.08c3.809,2.056,5.72,5.28,5.72,9.68v215.6c0,21.416,5.204,37.18,15.62,47.299
		c10.409,10.121,24.86,15.182,43.34,15.182c18.48,0,33-5.061,43.561-15.182c10.56-10.119,15.84-25.883,15.84-47.299V411.052z"/>
	<path fill="#4A4B4C" d="M1286.803,543.492h68.64c4.104,0,7.26,1.616,9.46,4.841c2.2,3.23,3.3,6.896,3.3,11
		c0,3.52-1.031,6.896-3.08,10.119c-2.055,3.232-5.279,4.842-9.68,4.842h-68.64v112.199h136.4c4.104,0,7.26,1.691,9.459,5.061
		c2.201,3.375,3.301,7.41,3.301,12.1c0,4.111-1.031,7.852-3.08,11.221c-2.055,3.375-5.279,5.059-9.68,5.059h-156.64
		c-4.111,0-7.92-1.1-11.44-3.299c-3.52-2.201-5.279-5.5-5.279-9.9V411.492c0-4.399,1.76-7.7,5.279-9.899
		c3.521-2.2,7.329-3.3,11.44-3.3h156.64c4.4,0,7.625,1.691,9.68,5.06c2.049,3.376,3.08,7.115,3.08,11.22
		c0,4.696-1.1,8.731-3.301,12.101c-2.199,3.375-5.355,5.06-9.459,5.06h-136.4V543.492z"/>
	<path fill="#4A4B4C" d="M1650.68,719.932c-4.992,0-9.461-1.539-13.42-4.619c-3.961-3.08-7.26-7.109-9.9-12.1l-114.4-221.321v224.84
		c0,4.4-1.91,7.699-5.719,9.9c-3.816,2.199-8.072,3.299-12.762,3.299c-4.695,0-8.951-1.1-12.76-3.299
		c-3.814-2.201-5.719-5.5-5.719-9.9v-295.68c0-4.689,1.828-7.989,5.5-9.9c3.664-1.905,7.988-2.86,12.979-2.86
		c6.746,0,12.102,1.98,16.061,5.94c3.961,3.96,7.988,9.756,12.1,17.38l109.561,214.281v-224.84c0-4.4,1.904-7.625,5.721-9.68
		c3.809-2.049,8.064-3.08,12.76-3.08c4.688,0,8.943,1.031,12.76,3.08c3.809,2.056,5.721,5.28,5.721,9.68v295.68
		c0,4.4-1.912,7.699-5.721,9.9C1659.623,718.832,1655.367,719.932,1650.68,719.932z"/>
	<path fill="#4A4B4C" d="M1881.236,482.333c-1.76-15.249-7.115-27.5-16.061-36.74c-8.951-9.24-22.955-13.86-42.02-13.86
		c-18.191,0-32.34,5.061-42.461,15.181c-10.119,10.119-15.18,25.891-15.18,47.3v132.44c0,21.416,5.061,37.18,15.18,47.299
		c10.121,10.121,24.27,15.182,42.461,15.182c18.184,0,32.408-5.061,42.68-15.182c10.264-10.119,15.4-25.883,15.4-47.299v-44.881
		h-52.359c-4.111,0-7.262-1.539-9.461-4.619s-3.301-6.67-3.301-10.78c0-3.81,1.102-7.329,3.301-10.561
		c2.199-3.225,5.35-4.84,9.461-4.84h76.559c4.105,0,7.26,1.396,9.461,4.18c2.199,2.792,3.299,5.94,3.299,9.46v62.041
		c0,17.6-2.42,32.49-7.26,44.66c-4.84,12.176-11.59,22.076-20.24,29.699c-8.654,7.631-18.775,13.131-30.359,16.5
		c-11.592,3.369-23.98,5.061-37.18,5.061c-13.201,0-25.596-1.691-37.18-5.061c-11.592-3.369-21.637-8.869-30.141-16.5
		c-8.512-7.623-15.18-17.523-20.02-29.699c-4.84-12.17-7.26-27.061-7.26-44.66v-132.44c0-17.601,2.42-32.484,7.26-44.66
		c4.84-12.169,11.508-22.069,20.02-29.7c8.504-7.624,18.48-13.124,29.92-16.5c11.439-3.369,23.609-5.06,36.52-5.06
		c14.369,0,27.5,1.912,39.381,5.72c11.879,3.815,22,9.171,30.359,16.06c8.361,6.896,14.809,15.181,19.361,24.86
		c4.543,9.68,6.818,20.392,6.818,32.12c0,7.04-1.615,11.812-4.84,14.3c-3.23,2.496-7.775,3.74-13.639,3.74
		c-4.992,0-9.24-0.949-12.762-2.86C1883.436,490.328,1881.525,487.028,1881.236,482.333z"/>
	<path fill="#4A4B4C" d="M1972.752,411.052c0-4.4,1.904-7.625,5.719-9.68c3.809-2.049,8.064-3.08,12.76-3.08
		c4.689,0,8.945,1.031,12.762,3.08c3.809,2.056,5.719,5.28,5.719,9.68v295.68c0,4.4-1.91,7.699-5.719,9.9
		c-3.816,2.199-8.072,3.299-12.762,3.299c-4.695,0-8.951-1.1-12.76-3.299c-3.814-2.201-5.719-5.5-5.719-9.9V411.052z"/>
	<path fill="#4A4B4C" d="M2246.871,719.932c-4.992,0-9.461-1.539-13.42-4.619c-3.961-3.08-7.26-7.109-9.9-12.1l-114.4-221.321
		v224.84c0,4.4-1.91,7.699-5.719,9.9c-3.816,2.199-8.072,3.299-12.762,3.299c-4.695,0-8.951-1.1-12.76-3.299
		c-3.814-2.201-5.719-5.5-5.719-9.9v-295.68c0-4.689,1.828-7.989,5.5-9.9c3.664-1.905,7.988-2.86,12.979-2.86
		c6.746,0,12.102,1.98,16.061,5.94c3.961,3.96,7.988,9.756,12.1,17.38l109.561,214.281v-224.84c0-4.4,1.904-7.625,5.721-9.68
		c3.809-2.049,8.064-3.08,12.76-3.08c4.688,0,8.943,1.031,12.76,3.08c3.809,2.056,5.721,5.28,5.721,9.68v295.68
		c0,4.4-1.912,7.699-5.721,9.9C2255.814,718.832,2251.559,719.932,2246.871,719.932z"/>
	<path fill="#4A4B4C" d="M2364.787,543.492h68.641c4.104,0,7.26,1.616,9.459,4.841c2.201,3.23,3.301,6.896,3.301,11
		c0,3.52-1.031,6.896-3.08,10.119c-2.055,3.232-5.279,4.842-9.68,4.842h-68.641v112.199h136.4c4.104,0,7.26,1.691,9.459,5.061
		c2.201,3.375,3.301,7.41,3.301,12.1c0,4.111-1.031,7.852-3.08,11.221c-2.055,3.375-5.279,5.059-9.68,5.059h-156.641
		c-4.111,0-7.92-1.1-11.439-3.299c-3.52-2.201-5.279-5.5-5.279-9.9V411.492c0-4.399,1.76-7.7,5.279-9.899
		c3.52-2.2,7.328-3.3,11.439-3.3h156.641c4.4,0,7.625,1.691,9.68,5.06c2.049,3.376,3.08,7.115,3.08,11.22
		c0,4.696-1.1,8.731-3.301,12.101c-2.199,3.375-5.355,5.06-9.459,5.06h-136.4V543.492z"/>
</g>
<g>
	<polygon fill="#9CCC65" points="609.684,846.979 570.536,826.485 591.404,786.624 	"/>
	<polygon fill="#9CCC65" points="673.094,630.601 691.182,691.012 652.162,670.587 	"/>
	<polygon fill="#9CCC65" points="743.821,495.516 721.797,537.585 548.157,446.67 547.46,448.008 547.124,447.832 519.823,380.527 
		520.671,378.908 520.764,378.731 598.396,419.376 	"/>
	<polygon fill="#4DAF4E" points="499.461,539.682 492.52,552.941 491.488,554.103 478.185,579.503 470.548,594.092 470.72,594.179 
		417.675,695.503 410.734,708.758 409.822,709.998 396.334,735.283 347.484,709.703 519.823,380.527 547.124,447.832 
		547.46,448.008 	"/>
	<polygon fill="#9CCC65" points="591.349,786.434 591.404,786.624 570.536,826.485 396.334,735.283 409.822,709.998 
		410.734,708.758 417.675,695.503 417.715,695.527 	"/>
	<polygon fill="#38A4DD" points="757.772,312.324 832.418,541.899 782.575,515.807 758.952,443.142 746.852,405.937 
		719.843,322.871 708.131,286.851 757.165,312.521 	"/>
	<polygon fill="#EF4438" points="445.078,149.121 446.055,149.636 464.653,207.148 463.426,207.546 319.313,482.805 
		318.721,483.942 318.227,483.683 272.731,478.301 444.89,149.479 	"/>
	<polygon fill="#3D82C4" points="832.418,541.899 832.665,542.655 832.515,542.708 659.548,873.091 609.688,846.988 
		691.306,691.079 691.311,691.082 712.244,651.089 760.939,558.078 782.766,516.385 782.575,515.807 	"/>
	<polygon fill="#D32E2E" points="318.721,483.942 319.313,482.805 356.78,598.48 328.668,652.159 307.866,588.18 272.449,478.836 
		272.731,478.301 318.227,483.683 	"/>
	<polygon fill="#9CCC65" points="499.461,539.682 673.103,630.59 673.095,630.594 673.094,630.601 652.162,670.587 478.398,579.611 
		478.185,579.503 491.488,554.103 492.52,552.941 	"/>
	<polygon fill="#EF4438" points="519.823,380.527 347.484,709.703 347.359,709.642 347.201,709.155 328.668,652.159 356.78,598.48 
		501.683,321.714 519.968,378.264 520.128,378.4 520.764,378.731 520.671,378.908 	"/>
	<polygon fill="#9CCC65" points="743.821,495.516 760.939,558.078 721.797,537.585 	"/>
	<polygon fill="#38A4DD" points="579.685,250.162 579.647,250.24 606.69,333.412 606.687,333.432 727.523,396.699 739.546,433.688 
		575.063,347.569 523.977,190.427 708.131,286.851 719.843,322.871 719.051,323.131 	"/>
</g>
</svg>
